<?xml version="1.0" encoding="UTF-8" standalone="no"?>
<svg
   viewBox="0 0 128 128"
   role="img"
   aria-label="LiTeX"
   version="1.1"
   id="svg10"
   sodipodi:docname="minimal-latex-studio.svg"
   inkscape:version="1.4.4 (dcaf3e7d9e, 2026-05-05)"
   xmlns:inkscape="http://www.inkscape.org/namespaces/inkscape"
   xmlns:sodipodi="http://sodipodi.sourceforge.net/DTD/sodipodi-0.dtd"
   xmlns="http://www.w3.org/2000/svg"
   xmlns:svg="http://www.w3.org/2000/svg">
  <sodipodi:namedview
     id="namedview10"
     pagecolor="#ffffff"
     bordercolor="#000000"
     borderopacity="0.25"
     inkscape:showpageshadow="2"
     inkscape:pageopacity="0.0"
     inkscape:pagecheckerboard="0"
     inkscape:deskcolor="#d1d1d1"
     inkscape:zoom="9.25"
     inkscape:cx="63.945946"
     inkscape:cy="64"
     inkscape:window-width="2400"
     inkscape:window-height="1422"
     inkscape:window-x="0"
     inkscape:window-y="0"
     inkscape:window-maximized="1"
     inkscape:current-layer="svg10" />
  <defs
     id="defs4">
    <linearGradient
       id="background"
       x1="18"
       y1="8"
       x2="108"
       y2="121"
       gradientUnits="userSpaceOnUse">
      <stop
         offset="0"
         stop-color="#fbfbf8"
         id="stop1" />
      <stop
         offset="1"
         stop-color="#dfe8e2"
         id="stop2" />
    </linearGradient>
    <linearGradient
       id="feather"
       x1="35"
       y1="101"
       x2="93"
       y2="25"
       gradientUnits="userSpaceOnUse"
       gradientTransform="translate(12,-8.5405405)">
      <stop
         offset="0"
         stop-color="#1f7a6d"
         id="stop3" />
      <stop
         offset="1"
         stop-color="#69b7a6"
         id="stop4" />
    </linearGradient>
  </defs>
  <rect
     x="6"
     y="6"
     width="116"
     height="116"
     rx="27"
     fill="url(#background)"
     id="rect4" />
  <path
     d="m 18.756757,106.56757 c 14,-6 27,-14.000002 39,-24.000002"
     fill="none"
     stroke="#202522"
     stroke-width="5"
     stroke-linecap="round"
     opacity="0.24"
     id="path9" />
  <rect
     x="6"
     y="6"
     width="116"
     height="116"
     rx="27"
     fill="none"
     stroke="#c9d6cf"
     stroke-width="2"
     id="rect5" />
  <path
     d="m 18.756757,106.56757 c 14,-6 27,-14.000002 39,-24.000002"
     fill="none"
     stroke="#175f55"
     stroke-width="2.5"
     stroke-linecap="round"
     id="path10" />
  <path
     d="m 45,92.459459 c 17,-9 32,-21 45,-37 10,-12 16,-25 19,-40 -15,3 -30,11 -43,24 -15,15 -23,32 -21,53 z"
     fill="url(#feather)"
     id="path5"
     style="fill:url(#feather)" />
  <path
     d="m 45,92.459459 c 17,-9 32,-21 45,-37 10,-12 16,-25 19,-40 -15,3 -30,11 -43,24 -15,15 -23,32 -21,53 z"
     fill="none"
     stroke="#175f55"
     stroke-width="3"
     stroke-linejoin="round"
     id="path6" />
  <path
     d="m 44.918919,92.108108 c 17.405405,-9.621622 31.972973,-20.351351 45.864865,-37.675676 7,-9 14.621616,-22.783784 17.783786,-36.513513"
     fill="none"
     stroke="#fbfbf8"
     stroke-width="4"
     stroke-linecap="round"
     id="path7"
     style="stroke-width:2.5;stroke-dasharray:none"
     sodipodi:nodetypes="ccc" />
  <path
     d="m 60.702703,76.702702 c -1,-9 0,-18 4,-28 m 10,17 c -2,-10 0,-21 6,-32 m 6,18 c 0,-8 3,-17 9,-26"
     fill="none"
     stroke="#d6ebe5"
     stroke-width="3"
     stroke-linecap="round"
     id="path8" />
  <text
     x="91.897308"
     y="103.51178"
     text-anchor="middle"
     font-family="serif"
     font-size="37.6377px"
     font-weight="700"
     fill="#405a73"
     opacity="0.18"
     id="text5"
     style="stroke-width:0.495233"
     transform="scale(1.0215823,0.97887365)">∑</text>
</svg>
